0
SECTION
2
HEADER
9
$INSUNITS
70
4
9
$ACADVER
1
AC1014
9
$HANDSEED
5
FFFF
0
ENDSEC
0
SECTION
2
TABLES
0
TABLE
2
VPORT
5
8
100
AcDbSymbolTable
0
ENDTAB
0
TABLE
2
LTYPE
5
5
100
AcDbSymbolTable
0
LTYPE
5
14
100
AcDbSymbolTableRecord
100
AcDbLinetypeTableRecord
2
BYBLOCK
70
0
0
LTYPE
5
15
100
AcDbSymbolTableRecord
100
AcDbLinetypeTableRecord
2
BYLAYER
70
0
0
LTYPE
5
16
100
AcDbSymbolTableRecord
100
AcDbLinetypeTableRecord
2
DASHED
70
0
3
Dashed __ __ __ __ __ __ __ __ __ __ __ __ __ _
72
65
73
2
40
0.75
49
0.5
74
0
49
-0.25
74
0
0
ENDTAB
0
TABLE
2
LAYER
5
2
100
AcDbSymbolTable
70
2
0
LAYER
5
50
100
AcDbSymbolTableRecord
100
AcDbLayerTableRecord
2
0
70
0
62
7
6
CONTINUOUS
0
ENDTAB
0
TABLE
2
STYLE
5
3
100
AcDbSymbolTable
70
1
0
STYLE
5
11
100
AcDbSymbolTableRecord
100
AcDbTextStyleTableRecord
2
STANDARD
70
0
0
ENDTAB
0
TABLE
2
VIEW
5
6
100
AcDbSymbolTable
70
0
0
ENDTAB
0
TABLE
2
UCS
5
7
100
AcDbSymbolTable
70
0
0
ENDTAB
0
TABLE
2
APPID
5
9
100
AcDbSymbolTable
70
2
0
APPID
5
12
100
AcDbSymbolTableRecord
100
AcDbRegAppTableRecord
2
ACAD
70
0
0
ENDTAB
0
TABLE
2
DIMSTYLE
5
A
100
AcDbSymbolTable
70
1
0
ENDTAB
0
TABLE
2
BLOCK_RECORD
5
1
100
AcDbSymbolTable
70
1
0
BLOCK_RECORD
5
1F
100
AcDbSymbolTableRecord
100
AcDbBlockTableRecord
2
*MODEL_SPACE
0
BLOCK_RECORD
5
1B
100
AcDbSymbolTableRecord
100
AcDbBlockTableRecord
2
*PAPER_SPACE
0
ENDTAB
0
ENDSEC
0
SECTION
2
BLOCKS
0
BLOCK
5
20
100
AcDbEntity
100
AcDbBlockBegin
2
*MODEL_SPACE
0
ENDBLK
5
21
100
AcDbEntity
100
AcDbBlockEnd
0
BLOCK
5
1C
100
AcDbEntity
100
AcDbBlockBegin
2
*PAPER_SPACE
0
ENDBLK
5
1D
100
AcDbEntity
100
AcDbBlockEnd
0
ENDSEC
0
SECTION
2
ENTITIES
0
LWPOLYLINE
5
100
100
AcDbEntity
8
0
100
AcDbPolyline
90
4
70
1
43
0.0
10
249.28855105257759
20
74.000000000000028
10
249.28855105257756
20
-162.00000000000003
10
-28.711538461538488
20
-162.00000000000003
10
-28.711538461538577
20
74.000000000000028
0
CIRCLE
5
101
100
AcDbEntity
8
0
100
AcDbCircle
10
133.28855105257762
20
-44
30
0
40
11
210
0
220
0
230
1
0
CIRCLE
5
102
100
AcDbEntity
8
0
100
AcDbCircle
10
133.28855105257762
20
10.999999999999977
30
0
40
2.75
210
0
220
0
230
1
0
LINE
5
103
100
AcDbEntity
8
0
100
AcDbLine
10
17.288551052577606
20
74.000000000000028
30
0
11
17.288551052577624
21
-55.987221377683625
31
0
0
LINE
5
104
100
AcDbEntity
8
0
100
AcDbLine
10
17.288551052577624
20
-55.987221377683625
30
0
11
17.28855105257766
21
-162.00000000000003
31
0
0
CIRCLE
5
105
100
AcDbEntity
8
0
100
AcDbCircle
10
-20.71153846153857
20
-154.00000000000003
30
0
40
2.7500000000000009
210
0
220
0
230
1
0
CIRCLE
5
106
100
AcDbEntity
8
0
100
AcDbCircle
10
241.28855105257756
20
-154.00000000000003
30
0
40
2.7499999999999858
210
0
220
0
230
1
0
CIRCLE
5
107
100
AcDbEntity
8
0
100
AcDbCircle
10
241.28855105257759
20
66.000000000000014
30
0
40
2.7499999999999858
210
0
220
0
230
1
0
CIRCLE
5
108
100
AcDbEntity
8
0
100
AcDbCircle
10
-20.71153846153857
20
66.000000000000014
30
0
40
2.7499999999999991
210
0
220
0
230
1
0
CIRCLE
5
109
100
AcDbEntity
8
0
100
AcDbCircle
10
133.28855105257762
20
-29
30
0
40
1.8000000000000003
210
0
220
0
230
1
0
CIRCLE
5
110
100
AcDbEntity
8
0
100
AcDbCircle
10
120.29816999581102
20
-51.500000000000021
30
0
40
1.8000000000000003
210
0
220
0
230
1
0
CIRCLE
5
111
100
AcDbEntity
8
0
100
AcDbCircle
10
146.2789321093442
20
-51.5
30
0
40
1.8000000000000003
210
0
220
0
230
1
0
LWPOLYLINE
5
112
100
AcDbEntity
8
0
100
AcDbPolyline
90
4
70
1
43
0.0
10
66.814027724253563
20
-55.721251992517793
10
52.041911429070417
20
-58.325974657521783
42
-0.087488663525924021
10
52.041911429070431
20
-29.674025342478252
10
66.814027724253563
20
-32.278748007482207
42
0.087488663525923882
0
LWPOLYLINE
5
113
100
AcDbEntity
8
0
100
AcDbPolyline
90
4
70
1
43
0.0
10
156.50387673007612
20
-107.38216352955834
10
161.66283799174252
20
-121.46708875834915
42
-0.17685133255943827
10
105.07188922820994
20
-121.52464121483746
10
110.20219137809498
20
-107.42925190304882
42
0.17685133255943822
0
LWPOLYLINE
5
114
100
AcDbEntity
8
0
100
AcDbPolyline
90
4
70
1
43
0.0
10
145.0098030450954
20
22.474523328324032
10
147.61452571009937
20
37.246639623507193
42
0.087488663525924062
10
118.96257639505585
20
37.246639623507171
10
121.5672990600598
20
22.474523328324025
42
-0.087488663525924021
0
LWPOLYLINE
5
115
100
AcDbEntity
8
0
100
AcDbPolyline
90
4
70
1
43
0.0
10
199.76307438090163
20
-32.278748007482207
10
214.53519067608482
20
-29.674025342478238
42
-0.087488663525924021
10
214.53519067608482
20
-58.325974657521762
10
199.76307438090163
20
-55.721251992517821
42
0.087488663525924062
0
CIRCLE
5
116
100
AcDbEntity
8
0
100
AcDbCircle
10
38.288551052577603
20
-44.000000000000021
30
0
40
2.25
210
0
220
0
230
1
0
CIRCLE
5
117
100
AcDbEntity
8
0
100
AcDbCircle
10
133.28855105257762
20
51.000000000000007
30
0
40
2.2500000000000018
210
0
220
0
230
1
0
CIRCLE
5
118
100
AcDbEntity
8
0
100
AcDbCircle
10
228.28855105257759
20
-43.999999999999979
30
0
40
2.2500000000000142
210
0
220
0
230
1
0
CIRCLE
5
119
100
AcDbEntity
8
0
100
AcDbCircle
10
133.28855105257762
20
-139
30
0
40
2.2500000000000018
210
0
220
0
230
1
0
CIRCLE
5
120
100
AcDbEntity
8
0
100
AcDbCircle
10
94.397678087317516
20
-5.1091270347398954
30
0
40
2.75
210
0
220
0
230
1
0
CIRCLE
5
121
100
AcDbEntity
8
0
100
AcDbCircle
10
78.288551052577631
20
-44.000000000000021
30
0
40
2.75
210
0
220
0
230
1
0
CIRCLE
5
122
100
AcDbEntity
8
0
100
AcDbCircle
10
94.397678087317502
20
-82.890872965260087
30
0
40
2.75
210
0
220
0
230
1
0
CIRCLE
5
123
100
AcDbEntity
8
0
100
AcDbCircle
10
133.28855105257762
20
-98.999999999999986
30
0
40
2.75
210
0
220
0
230
1
0
CIRCLE
5
124
100
AcDbEntity
8
0
100
AcDbCircle
10
172.17942401783773
20
-82.890872965260087
30
0
40
2.75
210
0
220
0
230
1
0
CIRCLE
5
125
100
AcDbEntity
8
0
100
AcDbCircle
10
188.28855105257759
20
-44.000000000000021
30
0
40
2.75
210
0
220
0
230
1
0
CIRCLE
5
126
100
AcDbEntity
8
0
100
AcDbCircle
10
172.17942401783773
20
-5.1091270347399131
30
0
40
2.75
210
0
220
0
230
1
0
ENDSEC
0
SECTION
2
OBJECTS
0
DICTIONARY
5
C
100
AcDbDictionary
3
ACAD_GROUP
350
D
3
ACAD_MLINESTYLE
350
17
0
DICTIONARY
5
D
100
AcDbDictionary
0
DICTIONARY
5
1A
330
C
100
AcDbDictionary
0
DICTIONARY
5
17
100
AcDbDictionary
0
ENDSEC
0
EOF
