0
SECTION
2
HEADER
9
$INSUNITS
70
4
9
$ACADVER
1
AC1014
9
$HANDSEED
5
FFFF
0
ENDSEC
0
SECTION
2
TABLES
0
TABLE
2
VPORT
5
8
100
AcDbSymbolTable
0
ENDTAB
0
TABLE
2
LTYPE
5
5
100
AcDbSymbolTable
0
LTYPE
5
14
100
AcDbSymbolTableRecord
100
AcDbLinetypeTableRecord
2
BYBLOCK
70
0
0
LTYPE
5
15
100
AcDbSymbolTableRecord
100
AcDbLinetypeTableRecord
2
BYLAYER
70
0
0
LTYPE
5
16
100
AcDbSymbolTableRecord
100
AcDbLinetypeTableRecord
2
DASHED
70
0
3
Dashed __ __ __ __ __ __ __ __ __ __ __ __ __ _
72
65
73
2
40
0.75
49
0.5
74
0
49
-0.25
74
0
0
ENDTAB
0
TABLE
2
LAYER
5
2
100
AcDbSymbolTable
70
2
0
LAYER
5
50
100
AcDbSymbolTableRecord
100
AcDbLayerTableRecord
2
0
70
0
62
7
6
CONTINUOUS
0
ENDTAB
0
TABLE
2
STYLE
5
3
100
AcDbSymbolTable
70
1
0
STYLE
5
11
100
AcDbSymbolTableRecord
100
AcDbTextStyleTableRecord
2
STANDARD
70
0
0
ENDTAB
0
TABLE
2
VIEW
5
6
100
AcDbSymbolTable
70
0
0
ENDTAB
0
TABLE
2
UCS
5
7
100
AcDbSymbolTable
70
0
0
ENDTAB
0
TABLE
2
APPID
5
9
100
AcDbSymbolTable
70
2
0
APPID
5
12
100
AcDbSymbolTableRecord
100
AcDbRegAppTableRecord
2
ACAD
70
0
0
ENDTAB
0
TABLE
2
DIMSTYLE
5
A
100
AcDbSymbolTable
70
1
0
ENDTAB
0
TABLE
2
BLOCK_RECORD
5
1
100
AcDbSymbolTable
70
1
0
BLOCK_RECORD
5
1F
100
AcDbSymbolTableRecord
100
AcDbBlockTableRecord
2
*MODEL_SPACE
0
BLOCK_RECORD
5
1B
100
AcDbSymbolTableRecord
100
AcDbBlockTableRecord
2
*PAPER_SPACE
0
ENDTAB
0
ENDSEC
0
SECTION
2
BLOCKS
0
BLOCK
5
20
100
AcDbEntity
100
AcDbBlockBegin
2
*MODEL_SPACE
0
ENDBLK
5
21
100
AcDbEntity
100
AcDbBlockEnd
0
BLOCK
5
1C
100
AcDbEntity
100
AcDbBlockBegin
2
*PAPER_SPACE
0
ENDBLK
5
1D
100
AcDbEntity
100
AcDbBlockEnd
0
ENDSEC
0
SECTION
2
ENTITIES
0
LWPOLYLINE
5
100
100
AcDbEntity
8
0
100
AcDbPolyline
90
4
70
1
43
0.0
10
-205.71153846153848
20
-88.500000000000014
10
-176.71153846153851
20
-88.500000000000014
10
-176.71153846153851
20
-134.50000000000003
10
-205.71153846153848
20
-134.50000000000003
0
LWPOLYLINE
5
101
100
AcDbEntity
8
0
100
AcDbPolyline
90
4
70
1
43
0.0
10
-164.71153846153851
20
-134.50000000000003
10
-164.71153846153851
20
-88.500000000000014
10
-135.71153846153848
20
-88.500000000000014
10
-135.71153846153848
20
-134.50000000000003
0
LWPOLYLINE
5
102
100
AcDbEntity
8
0
100
AcDbPolyline
90
4
70
1
43
0.0
10
-123.71153846153848
20
-134.50000000000003
10
-123.71153846153852
20
-88.500000000000014
10
-94.71153846153851
20
-88.500000000000014
10
-94.71153846153851
20
-134.50000000000003
0
LWPOLYLINE
5
103
100
AcDbEntity
8
0
100
AcDbPolyline
90
4
70
1
43
0.0
10
-82.71153846153851
20
-134.50000000000003
10
-82.71153846153851
20
-88.500000000000014
10
-53.711538461538495
20
-88.500000000000014
10
-53.711538461538495
20
-134.50000000000003
0
LWPOLYLINE
5
104
100
AcDbEntity
8
0
100
AcDbPolyline
90
4
70
1
43
0.0
10
-185.21153846153848
20
-78.500000000000014
10
-185.21153846153848
20
-32.5
10
-156.21153846153848
20
-32.5
10
-156.21153846153848
20
-78.500000000000014
0
LWPOLYLINE
5
105
100
AcDbEntity
8
0
100
AcDbPolyline
90
4
70
1
43
0.0
10
-115.21153846153844
20
-78.500000000000014
10
-144.21153846153845
20
-78.500000000000014
10
-144.21153846153845
20
-32.500000000000007
10
-115.21153846153844
20
-32.500000000000007
0
LWPOLYLINE
5
106
100
AcDbEntity
8
0
100
AcDbPolyline
90
4
70
1
43
0.0
10
-74.211538461538453
20
-78.500000000000014
10
-103.21153846153848
20
-78.500000000000014
10
-103.21153846153848
20
-32.500000000000007
10
-74.211538461538453
20
-32.500000000000007
0
LWPOLYLINE
5
107
100
AcDbEntity
8
0
100
AcDbPolyline
90
4
70
1
43
0.0
10
-205.71153846153848
20
46.5
10
-176.71153846153842
20
46.499999999999986
10
-176.71153846153842
20
17.5
10
-205.71153846153848
20
17.5
0
LWPOLYLINE
5
108
100
AcDbEntity
8
0
100
AcDbPolyline
90
4
70
1
43
0.0
10
-53.711538461538446
20
46.5
10
-53.711538461538446
20
17.5
10
-82.711538461538439
20
17.5
10
-82.711538461538439
20
46.5
0
LINE
5
109
100
AcDbEntity
8
0
100
AcDbLine
10
133.28855105257762
20
68.5
30
0
11
133.28855105257762
21
-156.5
31
0
0
CIRCLE
5
110
100
AcDbEntity
8
0
100
AcDbCircle
10
133.28855105257762
20
-44
30
0
40
112.5
210
0
220
0
230
1
0
CIRCLE
5
111
100
AcDbEntity
8
0
100
AcDbCircle
10
133.28855105257762
20
-44
30
0
40
95
210
0
220
0
230
1
0
LWPOLYLINE
5
112
100
AcDbEntity
8
0
100
AcDbPolyline
90
4
70
1
43
0.0
10
-230.71153846153848
20
74.000000000000014
10
249.28855105257756
20
74.000000000000014
10
249.28855105257753
20
-162.00000000000003
10
-230.71153846153848
20
-162.00000000000003
0
CIRCLE
5
113
100
AcDbEntity
8
0
100
AcDbCircle
10
133.28855105257762
20
-44
30
0
40
11
210
0
220
0
230
1
0
LINE
5
114
100
AcDbEntity
8
0
100
AcDbLine
10
20.788551052577606
20
-44.000000000000028
30
0
11
245.78855105257759
21
-43.999999999999979
31
0
0
CIRCLE
5
115
100
AcDbEntity
8
0
100
AcDbCircle
10
133.28855105257762
20
10.999999999999975
30
0
40
2.75
210
0
220
0
230
1
0
CIRCLE
5
116
100
AcDbEntity
8
0
100
AcDbCircle
10
78.288551052577603
20
-44.000000000000014
30
0
40
2.75
210
0
220
0
230
1
0
CIRCLE
5
117
100
AcDbEntity
8
0
100
AcDbCircle
10
188.28855105257762
20
-44.000000000000028
30
0
40
2.7499999999999858
210
0
220
0
230
1
0
CIRCLE
5
118
100
AcDbEntity
8
0
100
AcDbCircle
10
133.28855105257762
20
-99.000000000000028
30
0
40
2.7500000000000031
210
0
220
0
230
1
0
LWPOLYLINE
5
119
100
AcDbEntity
8
0
100
AcDbPolyline
90
2
70
1
43
0.0
10
38.288551052577603
20
-44.000000000000028
10
33.000000000000007
20
-44.000000000000028
0
LINE
5
120
100
AcDbEntity
8
0
100
AcDbLine
10
-28.711538461538574
20
74.000000000000014
30
0
11
-28.711538461538495
21
-162.00000000000003
31
0
0
LINE
5
121
100
AcDbEntity
8
0
100
AcDbLine
10
-230.71153846153848
20
-7.4999999999998561
30
0
11
-28.711538461538545
21
-7.49999999999996
31
0
0
LINE
5
122
100
AcDbEntity
8
0
100
AcDbLine
10
17.288551052577603
20
74.000000000000014
30
0
11
17.288551052577624
21
-55.987221377683625
31
0
0
LINE
5
123
100
AcDbEntity
8
0
100
AcDbLine
10
17.288551052577624
20
-55.987221377683625
30
0
11
17.28855105257766
21
-162.00000000000003
31
0
0
CIRCLE
5
124
100
AcDbEntity
8
0
100
AcDbCircle
10
-222.71153846153848
20
-154.00000000000003
30
0
40
2.75
210
0
220
0
230
1
0
CIRCLE
5
125
100
AcDbEntity
8
0
100
AcDbCircle
10
-222.71153846153848
20
66.000000000000014
30
0
40
2.7499999999999858
210
0
220
0
230
1
0
CIRCLE
5
126
100
AcDbEntity
8
0
100
AcDbCircle
10
-36.711538461538574
20
66.000000000000014
30
0
40
2.7500000000000036
210
0
220
0
230
1
0
CIRCLE
5
127
100
AcDbEntity
8
0
100
AcDbCircle
10
-36.711538461538574
20
-154.00000000000003
30
0
40
2.7500000000000036
210
0
220
0
230
1
0
CIRCLE
5
128
100
AcDbEntity
8
0
100
AcDbCircle
10
-20.71153846153857
20
-154.00000000000003
30
0
40
2.7500000000000009
210
0
220
0
230
1
0
CIRCLE
5
129
100
AcDbEntity
8
0
100
AcDbCircle
10
241.28855105257753
20
-154.00000000000003
30
0
40
2.7499999999999858
210
0
220
0
230
1
0
CIRCLE
5
130
100
AcDbEntity
8
0
100
AcDbCircle
10
241.28855105257756
20
66.000000000000014
30
0
40
2.7499999999999858
210
0
220
0
230
1
0
CIRCLE
5
131
100
AcDbEntity
8
0
100
AcDbCircle
10
-20.71153846153857
20
66.000000000000014
30
0
40
2.7499999999999991
210
0
220
0
230
1
0
CIRCLE
5
132
100
AcDbEntity
8
0
100
AcDbCircle
10
133.28855105257762
20
-44
30
0
40
15.000000000000007
210
0
220
0
230
1
0
CIRCLE
5
133
100
AcDbEntity
8
0
100
AcDbCircle
10
133.28855105257762
20
-28.999999999999993
30
0
40
2
210
0
220
0
230
1
0
CIRCLE
5
134
100
AcDbEntity
8
0
100
AcDbCircle
10
120.29816999581102
20
-51.500000000000021
30
0
40
2
210
0
220
0
230
1
0
CIRCLE
5
135
100
AcDbEntity
8
0
100
AcDbCircle
10
146.2789321093442
20
-51.5
30
0
40
2
210
0
220
0
230
1
0
CIRCLE
5
136
100
AcDbEntity
8
0
100
AcDbCircle
10
133.28855105257762
20
-44
30
0
40
67.5
210
0
220
0
230
1
0
CIRCLE
5
137
100
AcDbEntity
8
0
100
AcDbCircle
10
133.28855105257762
20
-44
30
0
40
82.5
210
0
220
0
230
1
0
LINE
5
138
100
AcDbEntity
8
0
100
AcDbLine
10
133.28855105257762
20
-44
30
0
11
215.78855105257759
21
-44
31
0
6
DASHED
0
LINE
5
139
100
AcDbEntity
8
0
100
AcDbLine
10
133.28855105257762
20
-44
30
0
11
215.78855105257759
21
-44
31
0
6
DASHED
0
LINE
5
140
100
AcDbEntity
8
0
100
AcDbLine
10
133.28855105257762
20
-44
30
0
11
215.78855105257759
21
-44
31
0
6
DASHED
0
LINE
5
141
100
AcDbEntity
8
0
100
AcDbLine
10
66.814027724253563
20
-55.721251992517793
30
0
11
52.041911429070439
21
-58.325974657521755
31
0
0
LINE
5
142
100
AcDbEntity
8
0
100
AcDbLine
10
133.28855105257762
20
-44
30
0
11
215.78855105257759
21
-44
31
0
6
DASHED
0
LINE
5
143
100
AcDbEntity
8
0
100
AcDbLine
10
66.814027724253563
20
-32.278748007482207
30
0
11
52.041911429070439
21
-29.674025342478252
31
0
0
LINE
5
144
100
AcDbEntity
8
0
100
AcDbLine
10
156.50387673007614
20
-107.38216352955834
30
0
11
161.66283799174249
21
-121.46708875834912
31
0
0
LINE
5
145
100
AcDbEntity
8
0
100
AcDbLine
10
110.20219137809498
20
-107.42925190304881
30
0
11
105.07188922820994
21
-121.52464121483746
31
0
0
LINE
5
146
100
AcDbEntity
8
0
100
AcDbLine
10
133.28855105257762
20
-44
30
0
11
215.78855105257759
21
-44
31
0
6
DASHED
0
LINE
5
147
100
AcDbEntity
8
0
100
AcDbLine
10
133.28855105257762
20
-44
30
0
11
215.78855105257759
21
-44
31
0
6
DASHED
0
LINE
5
148
100
AcDbEntity
8
0
100
AcDbLine
10
145.00980304509542
20
22.474523328324032
30
0
11
147.61452571009937
21
37.246639623507164
31
0
0
LINE
5
149
100
AcDbEntity
8
0
100
AcDbLine
10
121.5672990600598
20
22.474523328324032
30
0
11
118.96257639505585
21
37.246639623507164
31
0
0
LINE
5
150
100
AcDbEntity
8
0
100
AcDbLine
10
133.28855105257762
20
-44
30
0
11
215.78855105257759
21
-44
31
0
6
DASHED
0
LINE
5
151
100
AcDbEntity
8
0
100
AcDbLine
10
133.28855105257762
20
-44
30
0
11
215.78855105257759
21
-44
31
0
6
DASHED
0
LINE
5
152
100
AcDbEntity
8
0
100
AcDbLine
10
199.76307438090163
20
-32.278748007482207
30
0
11
214.53519067608477
21
-29.674025342478249
31
0
0
LINE
5
153
100
AcDbEntity
8
0
100
AcDbLine
10
199.76307438090163
20
-55.721251992517807
30
0
11
214.53519067608477
21
-58.325974657521762
31
0
0
CIRCLE
5
154
100
AcDbEntity
8
0
100
AcDbCircle
10
38.288551052577603
20
-44.000000000000028
30
0
40
2.25
210
0
220
0
230
1
0
CIRCLE
5
155
100
AcDbEntity
8
0
100
AcDbCircle
10
133.28855105257762
20
51
30
0
40
2.2500000000000018
210
0
220
0
230
1
0
CIRCLE
5
156
100
AcDbEntity
8
0
100
AcDbCircle
10
228.28855105257759
20
-43.999999999999979
30
0
40
2.2500000000000142
210
0
220
0
230
1
0
CIRCLE
5
157
100
AcDbEntity
8
0
100
AcDbCircle
10
133.28855105257762
20
-139
30
0
40
2.2500000000000018
210
0
220
0
230
1
0
CIRCLE
5
158
100
AcDbEntity
8
0
100
AcDbCircle
10
133.28855105257762
20
-44
30
0
40
21
210
0
220
0
230
1
0
ENDSEC
0
SECTION
2
OBJECTS
0
DICTIONARY
5
C
100
AcDbDictionary
3
ACAD_GROUP
350
D
3
ACAD_MLINESTYLE
350
17
0
DICTIONARY
5
D
100
AcDbDictionary
0
DICTIONARY
5
1A
330
C
100
AcDbDictionary
0
DICTIONARY
5
17
100
AcDbDictionary
0
ENDSEC
0
EOF
