<?xml version="1.0" encoding="UTF-8" standalone="no"?>
<!-- Created with Inkscape (http://www.inkscape.org/) -->

<svg
   width="300mm"
   height="297mm"
   viewBox="0 0 300 297"
   version="1.1"
   id="svg1"
   sodipodi:docname="DIY7K_scratch.svg"
   xml:space="preserve"
   inkscape:version="1.4.2 (f4327f4, 2025-05-13)"
   xmlns:inkscape="http://www.inkscape.org/namespaces/inkscape"
   xmlns:sodipodi="http://sodipodi.sourceforge.net/DTD/sodipodi-0.dtd"
   xmlns="http://www.w3.org/2000/svg"
   xmlns:svg="http://www.w3.org/2000/svg"><sodipodi:namedview
     id="namedview1"
     pagecolor="#505050"
     bordercolor="#eeeeee"
     borderopacity="1"
     inkscape:showpageshadow="0"
     inkscape:pageopacity="0"
     inkscape:pagecheckerboard="0"
     inkscape:deskcolor="#505050"
     inkscape:document-units="mm"
     inkscape:zoom="0.36302259"
     inkscape:cx="706.56761"
     inkscape:cy="428.348"
     inkscape:window-width="1920"
     inkscape:window-height="1017"
     inkscape:window-x="2552"
     inkscape:window-y="1072"
     inkscape:window-maximized="1"
     inkscape:current-layer="g31"
     showguides="true" /><defs
     id="defs1"><marker
       id="DistanceX"
       orient="auto"
       refX="0"
       refY="0"
       style="overflow:visible"><path
         d="M 3,-3 -3,3 M 0,-5 V 5"
         style="stroke:#000000;stroke-width:0.5"
         id="path1" /></marker><pattern
       id="Hatch"
       patternUnits="userSpaceOnUse"
       width="8"
       height="8"
       x="0"
       y="0"><path
         d="M8 4 l-4,4"
         stroke="#000000"
         stroke-width="0.25"
         linecap="square"
         id="path2" /><path
         d="M6 2 l-4,4"
         stroke="#000000"
         stroke-width="0.25"
         linecap="square"
         id="path3" /><path
         d="M4 0 l-4,4"
         stroke="#000000"
         stroke-width="0.25"
         linecap="square"
         id="path4" /></pattern><symbol
       id="*MODEL_SPACE" /><symbol
       id="*PAPER_SPACE" /></defs><g
     inkscape:label="Layer 1"
     inkscape:groupmode="layer"
     id="layer1"><g
       inkscape:label="0"
       id="g31"
       transform="matrix(0.26458333,0,0,0.26458333,-5.2489218,-192.56875)"><path
         d="M 1112.9812,837.32535 V 1729.2939 H 62.272223 V 837.32535 Z"
         style="fill:none;stroke:#000000"
         id="path5" /><path
         d="m 716.13082,1283.3096 a 41.574803,41.574803 0 0 0 -83.1496,0 41.574803,41.574803 0 0 0 83.1496,0 z"
         style="fill:none;stroke:#000000"
         id="path6" /><path
         d="m 684.94972,1075.4356 a 10.393701,10.393701 0 0 0 -20.7874,0 10.393701,10.393701 0 0 0 20.7874,0 z"
         style="fill:none;stroke:#000000"
         id="path7" /><path
         style="fill:none;stroke:#ff0000;stroke-opacity:1"
         d="m 236.13087,837.3257 v 491.285"
         id="path8" /><path
         style="fill:none;stroke:#ff0000;stroke-opacity:1"
         d="m 236.13087,1328.6107 v 400.68"
         id="path9" /><path
         d="m 102.90214,1699.0576 a 10.393701,10.393701 0 0 0 -20.787398,0 10.393701,10.393701 0 0 0 20.787398,0 z"
         style="fill:none;stroke:#000000"
         id="path10" /><path
         d="m 1093.1387,1699.0576 a 10.393701,10.393701 0 0 0 -20.7874,0 10.393701,10.393701 0 0 0 20.7874,0 z"
         style="fill:none;stroke:#000000"
         id="path11" /><path
         d="m 1093.1387,867.56157 a 10.393701,10.393701 0 0 0 -20.7874,0 10.393701,10.393701 0 0 0 20.7874,0 z"
         style="fill:none;stroke:#000000"
         id="path12" /><path
         d="m 102.90214,867.56157 a 10.393701,10.393701 0 0 0 -20.787398,0 10.393701,10.393701 0 0 0 20.787398,0 z"
         style="fill:none;stroke:#000000"
         id="path13" /><path
         d="m 681.35917,1226.6167 a 6.80315,6.80315 0 0 0 -13.6063,0 6.80315,6.80315 0 0 0 13.6063,0 z"
         style="fill:none;stroke:#000000"
         id="path14" /><path
         d="m 632.26167,1311.6561 a 6.80315,6.80315 0 0 0 -13.6063,0 6.80315,6.80315 0 0 0 13.6063,0 z"
         style="fill:none;stroke:#000000"
         id="path15" /><path
         d="m 730.45667,1311.6561 a 6.80315,6.80315 0 0 0 -13.60629,0 6.80315,6.80315 0 0 0 13.60629,0 z"
         style="fill:none;stroke:#000000"
         id="path16" /><path
         d="m 423.31373,1327.6104 -55.83162,9.8446 a 311.81102,311.81102 0 0 1 0,-108.2908 l 55.83162,9.8446 a 255.11811,255.11811 0 0 0 0,88.6016 z"
         style="fill:none;stroke:#000000"
         id="path17" /><path
         d="m 762.29898,1522.8642 19.49844,53.2344 a 311.81102,311.81102 0 0 1 -213.88705,0.2175 l 19.39012,-53.2739 a 255.11811,255.11811 0 0 0 174.99849,-0.178 z"
         style="fill:none;stroke:#000000"
         id="path18" /><path
         d="m 718.85682,1032.0673 9.84462,-55.83162 a 311.81102,311.81102 0 0 0 -108.29083,0 l 9.84462,55.83162 a 255.11811,255.11811 0 0 1 88.60159,0 z"
         style="fill:none;stroke:#000000"
         id="path19" /><path
         d="m 925.79831,1239.0088 55.83163,-9.8446 a 311.81102,311.81102 0 0 1 0,108.2908 l -55.83163,-9.8446 a 255.11811,255.11811 0 0 0 0,-88.6016 z"
         style="fill:none;stroke:#000000"
         id="path20" /><path
         d="m 324.00484,1283.3096 a 8.503937,8.503937 0 0 0 -17.00787,0 8.503937,8.503937 0 0 0 17.00787,0 z"
         style="fill:none;stroke:#000000"
         id="path21" /><path
         d="m 683.05996,924.25448 a 8.503937,8.503937 0 0 0 -17.00787,0 8.503937,8.503937 0 0 0 17.00787,0 z"
         style="fill:none;stroke:#000000"
         id="path22" /><path
         d="m 1042.1151,1283.3096 a 8.50394,8.50394 0 0 0 -17.0079,0 8.50394,8.50394 0 0 0 17.0079,0 z"
         style="fill:none;stroke:#000000"
         id="path23" /><path
         d="m 683.05996,1642.3647 a 8.503937,8.503937 0 0 0 -17.00787,0 8.503937,8.503937 0 0 0 17.00787,0 z"
         style="fill:none;stroke:#000000"
         id="path24" /><path
         d="m 537.9606,1136.3205 a 10.393705,10.393705 0 0 0 -20.78741,0 10.393705,10.393705 0 0 0 20.78741,0 z"
         style="fill:none;stroke:#000000"
         id="path25" /><path
         d="m 477.07571,1283.3096 a 10.393701,10.393701 0 0 0 -20.7874,0 10.393701,10.393701 0 0 0 20.7874,0 z"
         style="fill:none;stroke:#000000"
         id="path26" /><path
         d="m 537.9606,1430.2987 a 10.393705,10.393705 0 0 0 -20.78741,0 10.393705,10.393705 0 0 0 20.78741,0 z"
         style="fill:none;stroke:#000000"
         id="path27" /><path
         d="m 684.94972,1491.1836 a 10.393701,10.393701 0 0 0 -20.7874,0 10.393701,10.393701 0 0 0 20.7874,0 z"
         style="fill:none;stroke:#000000"
         id="path28" /><path
         d="m 831.93885,1430.2987 a 10.393701,10.393701 0 0 0 -20.7874,0 10.393701,10.393701 0 0 0 20.7874,0 z"
         style="fill:none;stroke:#000000"
         id="path29" /><path
         d="m 892.82374,1283.3096 a 10.393701,10.393701 0 0 0 -20.7874,0 10.393701,10.393701 0 0 0 20.7874,0 z"
         style="fill:none;stroke:#000000"
         id="path30" /><path
         d="m 831.93885,1136.3205 a 10.393701,10.393701 0 0 0 -20.7874,0 10.393701,10.393701 0 0 0 20.7874,0 z"
         style="fill:none;stroke:#000000"
         id="path31" /></g></g></svg>
