<?xml version="1.0" encoding="UTF-8" standalone="no"?>
<!-- Created with Inkscape (http://www.inkscape.org/) -->

<svg
   width="210mm"
   height="297mm"
   viewBox="0 0 210 297"
   version="1.1"
   id="svg1"
   xml:space="preserve"
   inkscape:version="1.4.2 (f4327f4, 2025-05-13)"
   sodipodi:docname="DIY7K_keyboard.svg"
   xmlns:inkscape="http://www.inkscape.org/namespaces/inkscape"
   xmlns:sodipodi="http://sodipodi.sourceforge.net/DTD/sodipodi-0.dtd"
   xmlns="http://www.w3.org/2000/svg"
   xmlns:svg="http://www.w3.org/2000/svg"><sodipodi:namedview
     id="namedview1"
     pagecolor="#505050"
     bordercolor="#eeeeee"
     borderopacity="1"
     inkscape:showpageshadow="0"
     inkscape:pageopacity="0"
     inkscape:pagecheckerboard="0"
     inkscape:deskcolor="#505050"
     inkscape:document-units="mm"
     inkscape:zoom="0.72604517"
     inkscape:cx="397.3582"
     inkscape:cy="561.25984"
     inkscape:window-width="1920"
     inkscape:window-height="1017"
     inkscape:window-x="2552"
     inkscape:window-y="1072"
     inkscape:window-maximized="1"
     inkscape:current-layer="g19" /><defs
     id="defs1"><marker
       id="DistanceX"
       orient="auto"
       refX="0.0"
       refY="0.0"
       style="overflow:visible"><path
         d="M 3,-3 L -3,3 M 0,-5 L  0,5"
         style="stroke:#000000; stroke-width:0.5"
         id="path1" /></marker><pattern
       id="Hatch"
       patternUnits="userSpaceOnUse"
       width="8"
       height="8"
       x="0"
       y="0"><path
         d="M8 4 l-4,4"
         stroke="#000000"
         stroke-width="0.25"
         linecap="square"
         id="path2" /><path
         d="M6 2 l-4,4"
         stroke="#000000"
         stroke-width="0.25"
         linecap="square"
         id="path3" /><path
         d="M4 0 l-4,4"
         stroke="#000000"
         stroke-width="0.25"
         linecap="square"
         id="path4" /></pattern><symbol
       id="*MODEL_SPACE" /><symbol
       id="*PAPER_SPACE" /></defs><g
     inkscape:label="Layer 1"
     inkscape:groupmode="layer"
     id="layer1"><g
       inkscape:label="0"
       id="g19"
       transform="matrix(0.26458333,0,0,0.26458333,234.75112,-192.56875)"><path
         d="m -777.49243,1457.0079 h 109.6063 v 173.8582 h -109.6063 z"
         style="fill:none;stroke:#000000"
         id="path5" /><path
         d="m -622.5318,1630.8661 v -173.8582 h 109.6063 v 173.8582 z"
         style="fill:none;stroke:#000000"
         id="path6" /><path
         d="m -467.57117,1630.8661 v -173.8582 h 109.6063 v 173.8582 z"
         style="fill:none;stroke:#000000"
         id="path7" /><path
         d="m -312.61054,1630.8661 v -173.8582 h 109.6063 v 173.8582 z"
         style="fill:none;stroke:#000000"
         id="path8" /><path
         d="m -700.01211,1419.2126 v -173.8583 h 109.6063 v 173.8583 z"
         style="fill:none;stroke:#000000"
         id="path9" /><path
         d="m -435.44518,1419.2126 h -109.6063 v -173.8583 h 109.6063 z"
         style="fill:none;stroke:#000000"
         id="path10" /><path
         d="m -280.48455,1419.2126 h -109.6063 v -173.8583 h 109.6063 z"
         style="fill:none;stroke:#000000"
         id="path11" /><path
         d="m -777.49243,946.77165 h 109.6063 V 1056.378 h -109.6063 z"
         style="fill:none;stroke:#000000"
         id="path12" /><path
         d="M -203.00424,946.77165 V 1056.378 h -109.6063 V 946.77165 Z"
         style="fill:none;stroke:#000000"
         id="path13" /><path
         d="M -871.98062,1734.8032 V 842.83465 h 763.46457 v 891.96855 z"
         style="fill:none;stroke:#000000"
         id="path14" /><path
         style="fill:#ff0000;stroke:#ff0000;stroke-opacity:1"
         d="m -871.981,1150.87 h 763.465"
         id="path15" /><path
         d="m -831.3507,1704.5669 a 10.393701,10.393701 0 0 0 -20.7874,0 10.393701,10.393701 0 0 0 20.7874,0 z"
         style="fill:none;stroke:#000000"
         id="path16" /><path
         d="m -831.3507,873.07087 a 10.393701,10.393701 0 0 0 -20.7874,0 10.393701,10.393701 0 0 0 20.7874,0 z"
         style="fill:none;stroke:#000000"
         id="path17" /><path
         d="m -128.35857,873.07087 a 10.393701,10.393701 0 0 0 -20.7874,0 10.393701,10.393701 0 0 0 20.7874,0 z"
         style="fill:none;stroke:#000000"
         id="path18" /><path
         d="m -128.35857,1704.5669 a 10.393701,10.393701 0 0 0 -20.7874,0 10.393701,10.393701 0 0 0 20.7874,0 z"
         style="fill:none;stroke:#000000"
         id="path19" /></g></g></svg>
